<?xml version="1.0" encoding="utf-8"?>
<!-- Generator: Adobe Illustrator 16.0.3, SVG Export Plug-In . SVG Version: 6.00 Build 0)  -->
<!DOCTYPE svg PUBLIC "-//W3C//DTD SVG 1.1//EN" "http://www.w3.org/Graphics/SVG/1.1/DTD/svg11.dtd">
<svg version="1.1" id="Layer_1" xmlns="http://www.w3.org/2000/svg" xmlns:xlink="http://www.w3.org/1999/xlink" x="0px" y="0px"
	 width="186px" height="76px" viewBox="0 0 186 76" enable-background="new 0 0 186 76" xml:space="preserve">
<g>
	<path fill="#00A5DC" d="M53.536,52.256c5.584,0,10.666-6.156,10.159-6.76c-0.196-0.234-1.33-0.455-1.187-0.951
		c0.225-0.775,0.816-2.945,2.344-2.639c0.771,0.154,6.185,2.934,6.143,4.641c-0.025,1.018-1.336,2.479-2.256,2.004
		c-0.321-0.164-0.668-0.609-1.124,0.076c-2.175,3.268-6.195,8.439-13.88,8.439c-12.52,0-14.478-11.482-14.478-16.765
		c0-7.973,2.058-18.75,14.986-18.75c12.627,0,14.314,16.644,11.122,16.644c-1.292,0-21.161,0-21.161,0
		C43.372,50.154,50.262,52.256,53.536,52.256z M60.995,33.658c1.607,0,0.511-7.076-7.319-7.076c-6.686,0-10.729,7.076-8.072,7.076
		C50.455,33.658,56.546,33.658,60.995,33.658z"/>
	<path fill="#00A5DC" d="M74.549,27.833c0,0-2.66-0.043-2.66-0.74c0-0.756,0.037-3.07,0.037-4.338c0-1.099,5.394-0.845,6.809-0.845
		c0.556,0,0.308,2.645,0.308,2.645c3.666-1.954,10.271-4.267,15.85-0.9c2.676,1.614,5.562,5.521,5.523,8.646
		c-0.009,0.688-0.404,1.296-2.443,1.358l-0.693,0.021c-1.746-0.181-1.609-1.084-2.055-2.01c-0.65-1.347-3.181-3.343-4.595-3.83
		c-1.723-0.594-6.381-0.174-8.465,1.399c-1.983,1.497-2.28,3.858-2.402,5.283c-0.746,8.765,0.03,16.405,0.03,17.728
		c0,0.922,1.575,0.535,2.304,1.102c0.936,0.728,0.441,3.76-0.07,3.76c-2.251,0-5.273-0.004-8.584,0.041
		c-0.926,0.015-1.346-0.399-1.423-1.28c-0.042-0.483-0.295-1.483,0.273-2.494c0.405-0.721,2.256,0.313,2.256-0.864V27.833z"/>
	<path fill="#00A5DC" d="M133.139,1.693c-0.002,10.267-0.008,51.03-0.008,51.03c2.285,0.397,1.854,0.497,1.871,1.424
		c0,0,0.051,2.92-0.025,2.92c-1.904,0-6.049,0-6.705,0c-0.119,0,0.002-8.375,0.002-6.826c-0.002,7.654-11.312,6.684-13.762,6.684
		c-10.764,0-11.174-13.424-11.173-17.4c0-3.669,1.698-11.554,5.509-14.459c4.359-3.323,10.476-4.499,18.633-1.22
		c2.021,0.813,1.133-7.245,1.133-16.201c0-0.347-1.387-0.918-1.899-1.201c-0.483-0.267-0.253-2.957-0.253-4.161
		C126.46,0.916,133.139,0.614,133.139,1.693z M112.293,29.971c-3.713,3.201-4.154,10.207-3.771,13.173
		c0.099,0.758,0.83,6.373,4.182,7.771c3.91,1.633,10.221,1.229,12.859-2.107c4.006-5.062,3.353-16.71-0.705-19.541
		C121.795,27.133,115.121,27.533,112.293,29.971z"/>
	<path fill="#00A5DC" d="M149.105,5.324c0.42-1.209,0.479-4.317-0.349-4.317c-2.026,0-8.071-0.354-8.188,0.467
		c-0.168,1.182-1.057,4.586,2.203,4.479l0.047,47.166c-1.312,0.049-1.907,0.064-2.029,0.412c-0.357,1.029-0.682,3.604,0.238,3.59
		c2.715-0.043,5.084-0.01,8.289-0.041c0.697-0.006,0.521-3.887,0-3.887c-2.17,0-1.926,0.057-1.926-0.445l0.014-46.942
		C147.404,5.806,148.814,6.168,149.105,5.324z"/>
	<path fill="#00A5DC" d="M178.941,51.064c0,0,1.121,1.703,1.748,1.403c2.354-1.123,3.306-8.553,3.306-8.553
		c0.103-0.974,0.36-2.922-1.664-2.353l-7.681,2.222c-0.387,0.086-0.754,1.116-0.125,1.842c0.711,0.813,0.916,0.806,1.592,1.631
		c1.238,1.517-11.271,9.451-16.764,1.104c-2.078-3.158-2.65-7.824-1.552-10.201c0,0,15.544,0.012,20.843,0.012
		c2.496,0,1.438-16.646-11.427-16.646c-12.456,0-14.895,12.54-14.895,18.844c0,5.34,2.68,16.555,12.725,16.555
		C175.08,56.924,178.941,51.064,178.941,51.064z M173.771,33.583c-4.006,0-10.371-0.01-14.66-0.01c-2.867,0,0.545-6.936,7.94-6.936
		C174.369,26.637,176.757,33.583,173.771,33.583z"/>
	<path fill="#00A5DC" d="M18.935,70.305c5.474-6.35,15.617-40.474,15.617-40.474c0.041-0.104,0.982,0,0.982,0
		c0.518-0.009,2.056,0.178,2.056-0.565c0-2.699-0.02-4.627-0.355-4.627l-9.737,0.035c-0.665-0.013-0.956,0.157-0.946,0.861
		l-0.004,3.502c0.008,0.61,0.678,0.744,1.224,0.807h0.407c2.674,0.223,1.328-0.801-2.312,12.182c0,0-3.638,10.644-3.869,9.976
		l-8.036-22.163c1.681,0.004,0.274-0.11,2.058-0.081c0.492,0.007,0.912-0.337,0.849-0.873c-0.071-0.611,0.089-2.3,0.017-2.903
		c-0.087-0.746-0.517-1.297-1.24-1.303c0,0-6.691,0.115-10.075,0.312c-0.299,0.017-0.321,3.636-0.154,4.455
		c0.037,0.178,0.001,0.651,0.179,0.651c1.167,0,1.503-0.099,2.794-0.036c0,0,8.65,21.875,9.871,25.708
		c0.54,1.697,0.212,5.463-0.76,7.617c-0.557,1.236-2.333,4.332-3.5,4.332c-2.397,0.002-5.812-8.246-5.812-8.246
		s1.273-0.367,2.291-0.996c0.948-0.588,1.511-0.971,0.598-1.942l-7.98-7.482c-0.777-0.772-2.089-0.227-2.066,0.988l-1.055,10.588
		c-0.129,1.226,0.014,2.271,0.983,1.822c1.252-0.584,1.491-0.697,2.772-1.191c0,0,3.177,6.892,4.572,9.17
		c0.367,0.599,1.896,2.576,5.565,2.574C15.554,73,17.817,71.604,18.935,70.305z"/>
</g>
</svg>
