<?xml version="1.0" encoding="UTF-8" standalone="no"?>
<svg width="58px" height="22px" viewBox="0 0 58 22" version="1.1" xmlns="http://www.w3.org/2000/svg" xmlns:xlink="http://www.w3.org/1999/xlink" xmlns:sketch="http://www.bohemiancoding.com/sketch/ns">
    <!-- Generator: Sketch 3.2.2 (9983) - http://www.bohemiancoding.com/sketch -->
    <title>Imported Layers</title>
    <desc>Created with Sketch.</desc>
    <defs></defs>
    <g id="Page-1" stroke="none" stroke-width="1" fill="none" fill-rule="evenodd" sketch:type="MSPage">
        <g id="Imported-Layers" sketch:type="MSLayerGroup">
            <path d="M24.398,21.197 L24.398,0.405 L32.651,0.405 C36.629,0.405 39.112,1.814 40.099,4.633 C40.387,5.457 40.531,6.382 40.531,7.408 L40.531,14.267 C40.531,16.538 39.877,18.262 38.569,19.435 C37.261,20.609 35.297,21.197 32.68,21.197 L24.398,21.197 L24.398,21.197 Z M27.302,19.039 L32.393,19.039 C34.482,19.039 35.88,18.652 36.585,17.876 C37.29,17.099 37.64,15.992 37.64,14.554 L37.64,7.235 C37.64,5.117 36.932,3.741 35.513,3.108 C34.708,2.744 33.667,2.567 32.393,2.576 L27.302,2.576 L27.302,19.039 L27.302,19.039 Z" id="Fill-1" fill="#FFFFFF" sketch:type="MSShapeGroup"></path>
            <path d="M54.081,5.773 C54.081,3.743 53.024,2.729 50.911,2.729 C49.812,2.729 49.048,2.831 48.62,3.036 C48.191,3.24 47.884,3.487 47.697,3.776 C47.307,4.391 47.111,5.35 47.111,6.653 L44.43,6.653 C44.43,4.949 44.718,3.648 45.295,2.75 C45.873,1.851 46.626,1.246 47.551,0.934 C48.477,0.621 49.565,0.466 50.813,0.466 C52.628,0.466 54.065,0.901 55.122,1.771 C56.179,2.642 56.707,3.963 56.707,5.731 C56.707,7.091 56.454,8.137 55.946,8.867 C55.438,9.599 54.612,10.058 53.467,10.244 C54.687,10.495 55.599,11.012 56.205,11.794 C56.81,12.576 57.112,13.851 57.112,15.621 C57.112,17.391 56.573,18.775 55.492,19.777 C54.412,20.777 52.871,21.278 50.868,21.278 C49.351,21.278 48.148,21.078 47.258,20.678 C46.369,20.277 45.691,19.625 45.225,18.722 C44.76,17.818 44.448,16.561 44.29,14.95 L46.971,14.95 C47.083,16.608 47.441,17.707 48.047,18.247 C48.382,18.545 48.778,18.748 49.234,18.854 C49.691,18.961 50.286,19.016 51.022,19.016 C52.205,19.016 53.071,18.713 53.62,18.107 C54.17,17.502 54.444,16.492 54.444,15.076 C54.444,13.66 54.186,12.723 53.669,12.262 C53.152,11.801 52.519,11.528 51.769,11.444 C51.02,11.36 50.292,11.318 49.584,11.318 L49.584,9.237 C51.073,9.237 52.079,9.117 52.601,8.874 C53.122,8.632 53.499,8.337 53.731,7.988 C53.965,7.639 54.081,6.9 54.081,5.773" id="Fill-2" fill="#FFFFFF" sketch:type="MSShapeGroup"></path>
            <path d="M6.877,0.412 L12.867,0.412 L6.877,10.787 L0.888,0.412 L6.877,0.412" id="Fill-3" fill="#009489" sketch:type="MSShapeGroup"></path>
            <path d="M12.867,10.787 L6.877,10.787 L12.867,0.412 L18.856,10.787 L12.867,10.787" id="Fill-4" fill="#56AC88" sketch:type="MSShapeGroup"></path>
            <path d="M6.877,21.041 L12.867,21.041 L6.877,10.666 L0.888,21.041 L6.877,21.041" id="Fill-5" fill="#D6E49E" sketch:type="MSShapeGroup"></path>
            <path d="M12.867,10.666 L6.877,10.666 L12.867,21.041 L18.856,10.666 L12.867,10.666" id="Fill-6" fill="#81C399" sketch:type="MSShapeGroup"></path>
        </g>
    </g>
</svg>