<?xml version="1.0" encoding="UTF-8" standalone="no"?>
<svg width="180px" height="21px" viewBox="0 0 180 21" version="1.1" xmlns="http://www.w3.org/2000/svg" xmlns:xlink="http://www.w3.org/1999/xlink" xmlns:sketch="http://www.bohemiancoding.com/sketch/ns">
    <!-- Generator: Sketch 3.2.2 (9983) - http://www.bohemiancoding.com/sketch -->
    <title>Imported Layers</title>
    <desc>Created with Sketch.</desc>
    <defs></defs>
    <g id="Page-1" stroke="none" stroke-width="1" fill="none" fill-rule="evenodd" sketch:type="MSPage">
        <g id="Imported-Layers" sketch:type="MSLayerGroup">
            <path d="M10.537,0.094 L15.806,9.219 L5.269,9.219 L10.537,0.094" id="Fill-1" fill="#56AC8A" sketch:type="MSShapeGroup"></path>
            <path d="M5.269,9.219 L0,0.094 L10.537,0.094 L5.269,9.219" id="Fill-2" fill="#089489" sketch:type="MSShapeGroup"></path>
            <path d="M10.537,18.344 L15.806,9.219 L5.269,9.219 L10.537,18.344" id="Fill-3" fill="#84C49A" sketch:type="MSShapeGroup"></path>
            <path d="M5.269,9.219 L0,18.344 L10.537,18.344 L5.269,9.219" id="Fill-4" fill="#D9E6A0" sketch:type="MSShapeGroup"></path>
            <path d="M22.818,16.653 L22.818,1.801 L28.714,1.801 C31.557,1.801 33.33,2.808 34.035,4.82 C34.24,5.409 34.344,6.07 34.344,6.803 L34.344,11.702 C34.344,13.325 33.877,14.557 32.941,15.396 C32.008,16.233 30.604,16.653 28.735,16.653 L22.818,16.653 L22.818,16.653 Z M24.894,15.112 L28.529,15.112 C30.022,15.112 31.022,14.835 31.525,14.28 C32.028,13.727 32.279,12.936 32.279,11.908 L32.279,6.68 C32.279,5.166 31.772,4.184 30.758,3.732 C30.184,3.471 29.439,3.345 28.529,3.352 L24.894,3.352 L24.894,15.112 L24.894,15.112 Z" id="Fill-5" fill="#404041" sketch:type="MSShapeGroup"></path>
            <path d="M43.89,5.622 C43.89,4.177 43.138,3.454 41.634,3.454 C40.852,3.454 40.308,3.527 40.003,3.673 C39.697,3.818 39.478,3.994 39.346,4.199 C39.068,4.637 38.929,5.319 38.929,6.248 L37.02,6.248 C37.02,5.035 37.226,4.108 37.637,3.469 C38.048,2.829 38.583,2.398 39.242,2.177 C39.901,1.954 40.677,1.844 41.563,1.844 C42.856,1.844 43.878,2.153 44.631,2.773 C45.384,3.393 45.759,4.332 45.759,5.592 C45.759,6.56 45.579,7.305 45.219,7.824 C44.856,8.345 44.268,8.671 43.453,8.804 C44.321,8.981 44.971,9.35 45.402,9.907 C45.832,10.464 46.048,11.372 46.048,12.632 C46.048,13.891 45.665,14.877 44.895,15.59 C44.126,16.303 43.028,16.658 41.604,16.658 C40.523,16.658 39.667,16.516 39.033,16.23 C38.4,15.946 37.918,15.482 37.587,14.838 C37.256,14.195 37.033,13.301 36.92,12.154 L38.829,12.154 C38.909,13.334 39.164,14.116 39.596,14.501 C39.833,14.713 40.116,14.857 40.44,14.934 C40.765,15.01 41.188,15.048 41.713,15.048 C42.555,15.048 43.171,14.832 43.562,14.402 C43.953,13.97 44.148,13.252 44.148,12.243 C44.148,11.235 43.965,10.568 43.598,10.24 C43.23,9.912 42.778,9.718 42.245,9.659 C41.712,9.599 41.193,9.568 40.689,9.568 L40.689,8.088 C41.75,8.088 42.466,8.001 42.836,7.829 C43.207,7.656 43.477,7.446 43.643,7.198 C43.809,6.949 43.89,6.424 43.89,5.622" id="Fill-6" fill="#404041" sketch:type="MSShapeGroup"></path>
            <path d="M54.918,1.963 L56.797,1.963 L56.797,3.912 L54.918,3.912 L54.918,1.963 Z M54.918,5.82 L56.797,5.82 L56.797,16.413 L54.918,16.413 L54.918,5.82 Z" id="Fill-7" fill="#404041" sketch:type="MSShapeGroup"></path>
            <path d="M67.25,8.608 C67.25,7.576 66.487,7.06 64.961,7.06 C64.189,7.06 63.594,7.225 63.177,7.554 C62.761,7.884 62.552,8.322 62.552,8.869 L62.552,16.413 L60.674,16.413 L60.674,5.82 L62.552,5.82 L62.552,6.85 C63.258,6.03 64.319,5.621 65.735,5.621 C67.15,5.621 68.139,6.083 68.698,7.01 L68.948,6.77 C69.714,6.004 70.787,5.621 72.166,5.621 C73.944,5.621 75.044,6.254 75.464,7.52 C75.583,7.879 75.644,8.279 75.644,8.719 L75.644,16.413 L73.765,16.413 L73.765,8.608 C73.765,7.576 73.072,7.06 71.687,7.06 C70.813,7.06 70.169,7.225 69.753,7.554 C69.336,7.884 69.128,8.322 69.128,8.869 L69.128,16.413 L67.25,16.413 L67.25,8.608" id="Fill-8" fill="#404041" sketch:type="MSShapeGroup"></path>
            <path d="M79.262,20.49 L79.262,5.82 L80.74,5.82 L80.96,6.62 C81.267,6.347 81.686,6.112 82.219,5.915 C82.752,5.719 83.306,5.621 83.878,5.621 C85.19,5.621 86.188,5.94 86.871,6.58 C87.553,7.22 87.894,8.068 87.894,9.128 L87.894,12.976 C87.894,14.068 87.521,14.951 86.776,15.624 C86.029,16.297 84.983,16.633 83.638,16.633 C82.705,16.633 81.871,16.446 81.139,16.074 L81.139,20.49 L79.262,20.49 L79.262,20.49 Z M81.139,14.625 C81.814,15.004 82.565,15.193 83.398,15.193 C84.231,15.193 84.876,15.018 85.331,14.664 C85.788,14.312 86.018,13.815 86.018,13.176 L86.018,8.979 C86.018,8.365 85.791,7.893 85.342,7.56 C84.891,7.227 84.343,7.06 83.693,7.06 C83.043,7.06 82.49,7.193 82.034,7.459 C81.577,7.727 81.279,7.966 81.139,8.18 L81.139,14.625 L81.139,14.625 Z" id="Fill-9" fill="#404041" sketch:type="MSShapeGroup"></path>
            <path d="M94.082,16.633 C93.008,16.633 92.176,16.342 91.582,15.759 C90.989,15.176 90.693,14.451 90.693,13.585 C90.693,13.092 90.797,12.683 91.003,12.356 C91.424,11.689 92.676,11.054 94.761,10.447 C95.967,10.114 96.66,9.828 96.845,9.588 C97.027,9.348 97.129,9.16 97.15,9.023 C97.17,8.887 97.18,8.668 97.18,8.369 C97.18,8.068 97.057,7.775 96.814,7.489 C96.57,7.203 96.043,7.06 95.23,7.06 C94.085,7.06 93.381,7.279 93.122,7.72 C92.988,7.945 92.922,8.252 92.922,8.639 L92.922,9.108 L91.113,9.108 L91.113,8.629 C91.113,7.596 91.457,6.836 92.148,6.351 C92.837,5.864 93.867,5.621 95.24,5.621 C96.612,5.621 97.591,5.933 98.178,6.555 C98.764,7.178 99.058,8.065 99.058,9.218 L99.058,13.735 C99.058,14.288 99.127,14.647 99.268,14.81 C99.407,14.973 99.707,15.055 100.168,15.055 L99.947,16.493 L99.568,16.493 C98.901,16.493 98.404,16.365 98.078,16.108 C97.752,15.852 97.502,15.454 97.329,14.914 C96.775,15.74 96.11,16.26 95.33,16.474 C94.957,16.58 94.541,16.633 94.082,16.633 L94.082,16.633 Z M95.025,11.732 C94.076,12.008 93.419,12.283 93.057,12.557 C92.694,12.829 92.512,13.214 92.512,13.71 C92.512,14.207 92.679,14.581 93.017,14.834 C93.354,15.088 93.76,15.215 94.235,15.215 C94.712,15.215 95.144,15.152 95.531,15.029 C95.916,14.906 96.265,14.723 96.574,14.48 C96.885,14.236 97.084,13.958 97.18,13.646 L97.18,10.588 C96.693,11.073 95.976,11.455 95.025,11.732 L95.025,11.732 Z" id="Fill-10" fill="#404041" sketch:type="MSShapeGroup"></path>
            <path d="M106.872,16.633 C104.707,16.633 103.352,15.881 102.806,14.375 C102.645,13.948 102.565,13.482 102.565,12.976 L102.565,8.938 C102.565,7.933 102.949,7.128 103.716,6.524 C104.479,5.922 105.517,5.621 106.822,5.621 C108.487,5.621 109.634,5.981 110.26,6.7 C110.753,7.26 110.999,8.086 110.999,9.179 L109.21,9.348 C109.21,8.402 109.042,7.784 108.706,7.494 C108.368,7.204 107.771,7.06 106.912,7.06 C106.053,7.06 105.427,7.209 105.033,7.51 C104.641,7.81 104.444,8.303 104.444,8.988 L104.444,13.136 C104.444,13.868 104.65,14.395 105.064,14.715 C105.476,15.034 106.114,15.193 106.978,15.193 C107.84,15.193 108.416,15.081 108.706,14.855 C108.996,14.628 109.174,14.115 109.24,13.315 L110.979,13.315 C110.874,14.541 110.52,15.4 109.92,15.895 C109.32,16.387 108.306,16.633 106.872,16.633" id="Fill-11" fill="#404041" sketch:type="MSShapeGroup"></path>
            <path d="M118.934,16.493 C117.455,16.493 116.388,16.26 115.732,15.794 C115.074,15.327 114.747,14.524 114.747,13.386 L114.747,7.239 L112.978,7.239 L112.978,5.82 L114.817,5.82 L115.047,2.543 L116.626,2.543 L116.626,5.82 L119.284,5.82 L119.284,7.239 L116.626,7.239 L116.626,13.266 C116.626,13.933 116.817,14.373 117.2,14.59 C117.584,14.807 118.252,14.914 119.203,14.914 L119.414,14.914 L119.215,16.493 L118.934,16.493" id="Fill-12" fill="#404041" sketch:type="MSShapeGroup"></path>
            <path d="M126.866,13.21 C127.022,13.817 127.266,14.346 127.593,14.797 C127.92,15.247 128.343,15.602 128.862,15.861 C129.381,16.12 130.015,16.25 130.765,16.25 C131.869,16.25 132.787,15.96 133.518,15.38 C134.247,14.8 134.701,13.931 134.879,12.771 L135.289,12.771 C135.137,13.998 134.653,14.95 133.835,15.625 C133.016,16.301 132.006,16.639 130.807,16.639 C129.988,16.651 129.288,16.523 128.708,16.25 C128.129,15.977 127.655,15.591 127.287,15.093 C126.919,14.596 126.645,14.009 126.468,13.333 C126.289,12.658 126.201,11.931 126.201,11.153 C126.201,10.281 126.33,9.503 126.59,8.82 C126.849,8.139 127.19,7.562 127.613,7.091 C128.036,6.62 128.527,6.262 129.087,6.017 C129.645,5.771 130.22,5.648 130.807,5.648 C131.625,5.648 132.331,5.806 132.925,6.119 C133.518,6.434 134.002,6.85 134.378,7.367 C134.752,7.886 135.025,8.48 135.196,9.148 C135.366,9.816 135.439,10.513 135.411,11.235 L126.611,11.235 C126.624,11.945 126.709,12.604 126.866,13.21 L126.866,13.21 Z M134.735,8.994 C134.558,8.415 134.296,7.906 133.947,7.47 C133.6,7.033 133.166,6.688 132.648,6.437 C132.129,6.184 131.529,6.058 130.847,6.058 C130.273,6.058 129.738,6.167 129.24,6.385 C128.742,6.604 128.306,6.921 127.932,7.336 C127.556,7.753 127.252,8.254 127.02,8.841 C126.788,9.428 126.651,10.089 126.611,10.826 L135.002,10.826 C135.002,10.185 134.912,9.574 134.735,8.994 L134.735,8.994 Z" id="Fill-13" fill="#404041" sketch:type="MSShapeGroup"></path>
            <path d="M137.457,5.894 L137.457,8.493 L137.498,8.493 C137.594,8.084 137.746,7.709 137.961,7.367 C138.171,7.026 138.436,6.727 138.758,6.467 C139.078,6.208 139.449,6.006 139.872,5.863 C140.296,5.72 140.766,5.648 141.285,5.648 C141.831,5.648 142.332,5.73 142.788,5.894 C143.245,6.058 143.642,6.3 143.977,6.62 C144.311,6.941 144.57,7.336 144.755,7.807 C144.938,8.278 145.029,8.82 145.029,9.435 L145.029,16.413 L144.621,16.413 L144.621,9.495 C144.621,8.883 144.531,8.359 144.355,7.93 C144.177,7.5 143.935,7.146 143.628,6.866 C143.321,6.586 142.966,6.382 142.564,6.252 C142.161,6.123 141.735,6.058 141.285,6.058 C140.657,6.058 140.104,6.177 139.628,6.416 C139.149,6.654 138.751,6.975 138.43,7.378 C138.108,7.779 137.867,8.247 137.703,8.779 C137.538,9.312 137.457,9.871 137.457,10.458 L137.457,16.413 L137.049,16.413 L137.049,5.894 L137.457,5.894" id="Fill-14" fill="#404041" sketch:type="MSShapeGroup"></path>
            <path d="M155.243,12.894 C155.133,13.357 154.939,13.774 154.659,14.142 C154.38,14.51 154.051,14.82 153.676,15.072 C153.301,15.325 152.893,15.516 152.449,15.646 C152.005,15.775 151.559,15.841 151.107,15.841 C150.371,15.841 149.73,15.704 149.185,15.432 C148.639,15.158 148.184,14.793 147.823,14.336 C147.461,13.879 147.189,13.344 147.005,12.729 C146.82,12.115 146.728,11.475 146.728,10.806 C146.728,10.097 146.823,9.432 147.015,8.811 C147.206,8.19 147.492,7.644 147.874,7.173 C148.257,6.702 148.731,6.33 149.297,6.058 C149.863,5.785 150.515,5.648 151.252,5.648 C151.756,5.648 152.228,5.727 152.663,5.884 C153.101,6.04 153.492,6.255 153.841,6.527 C154.187,6.802 154.48,7.121 154.722,7.49 C154.96,7.858 155.133,8.262 155.243,8.697 L155.284,8.697 L155.284,5.894 L155.693,5.894 L155.693,16.065 C155.693,17.512 155.31,18.572 154.547,19.248 C153.783,19.923 152.704,20.261 151.314,20.261 C150.78,20.261 150.276,20.199 149.799,20.076 C149.32,19.954 148.898,19.759 148.53,19.493 C148.16,19.228 147.867,18.886 147.649,18.471 C147.431,18.054 147.315,17.545 147.302,16.945 L147.711,16.945 C147.725,17.464 147.831,17.907 148.027,18.275 C148.227,18.645 148.488,18.943 148.817,19.176 C149.143,19.408 149.522,19.579 149.952,19.689 C150.382,19.797 150.829,19.852 151.292,19.852 C152.573,19.852 153.56,19.548 154.25,18.94 C154.939,18.334 155.284,17.375 155.284,16.065 L155.284,12.894 L155.243,12.894 L155.243,12.894 Z M155.008,9.046 C154.836,8.473 154.584,7.964 154.25,7.521 C153.916,7.077 153.496,6.723 152.992,6.457 C152.486,6.19 151.907,6.058 151.252,6.058 C150.568,6.058 149.973,6.184 149.46,6.437 C148.949,6.688 148.52,7.033 148.172,7.47 C147.823,7.906 147.563,8.411 147.395,8.984 C147.224,9.558 147.138,10.164 147.138,10.806 C147.138,11.461 147.224,12.067 147.395,12.627 C147.563,13.187 147.816,13.675 148.152,14.091 C148.484,14.507 148.898,14.834 149.389,15.072 C149.88,15.312 150.447,15.432 151.087,15.432 C151.77,15.432 152.37,15.308 152.888,15.063 C153.407,14.817 153.841,14.486 154.187,14.07 C154.536,13.653 154.803,13.163 154.987,12.596 C155.171,12.03 155.264,11.434 155.264,10.806 C155.264,10.206 155.177,9.618 155.008,9.046 L155.008,9.046 Z" id="Fill-15" fill="#404041" sketch:type="MSShapeGroup"></path>
            <path d="M157.902,1.801 L158.312,1.801 L158.312,3.867 L157.902,3.867 L157.902,1.801 Z M157.902,5.894 L158.312,5.894 L158.312,16.414 L157.902,16.414 L157.902,5.894 Z" id="Fill-16" fill="#404041" sketch:type="MSShapeGroup"></path>
            <path d="M160.973,5.894 L160.973,8.493 L161.013,8.493 C161.109,8.084 161.263,7.709 161.473,7.367 C161.686,7.026 161.95,6.727 162.272,6.467 C162.593,6.208 162.964,6.006 163.387,5.863 C163.811,5.72 164.282,5.648 164.8,5.648 C165.345,5.648 165.847,5.73 166.305,5.894 C166.761,6.058 167.156,6.3 167.491,6.62 C167.825,6.941 168.085,7.336 168.27,7.807 C168.452,8.278 168.546,8.82 168.546,9.435 L168.546,16.413 L168.136,16.413 L168.136,9.495 C168.136,8.883 168.045,8.359 167.869,7.93 C167.691,7.5 167.45,7.146 167.144,6.866 C166.836,6.586 166.481,6.382 166.079,6.252 C165.677,6.123 165.25,6.058 164.8,6.058 C164.174,6.058 163.62,6.177 163.142,6.416 C162.665,6.654 162.266,6.975 161.945,7.378 C161.624,7.779 161.383,8.247 161.219,8.779 C161.055,9.312 160.973,9.871 160.973,10.458 L160.973,16.413 L160.562,16.413 L160.562,5.894 L160.973,5.894" id="Fill-17" fill="#404041" sketch:type="MSShapeGroup"></path>
            <path d="M170.848,13.21 C171.004,13.817 171.247,14.346 171.574,14.797 C171.902,15.247 172.324,15.602 172.844,15.861 C173.361,16.12 173.997,16.25 174.747,16.25 C175.852,16.25 176.77,15.96 177.499,15.38 C178.228,14.8 178.683,13.931 178.861,12.771 L179.27,12.771 C179.118,13.998 178.636,14.95 177.816,15.625 C176.998,16.301 175.988,16.639 174.788,16.639 C173.969,16.651 173.27,16.523 172.689,16.25 C172.109,15.977 171.636,15.591 171.268,15.093 C170.899,14.596 170.627,14.009 170.449,13.333 C170.271,12.658 170.182,11.931 170.182,11.153 C170.182,10.281 170.312,9.503 170.571,8.82 C170.831,8.139 171.172,7.562 171.595,7.091 C172.018,6.62 172.509,6.262 173.068,6.017 C173.628,5.771 174.2,5.648 174.788,5.648 C175.605,5.648 176.312,5.806 176.906,6.119 C177.499,6.434 177.982,6.85 178.358,7.367 C178.734,7.886 179.006,8.48 179.177,9.148 C179.348,9.816 179.42,10.513 179.393,11.235 L170.592,11.235 C170.606,11.945 170.691,12.604 170.848,13.21 L170.848,13.21 Z M178.717,8.994 C178.54,8.415 178.277,7.906 177.93,7.47 C177.581,7.033 177.148,6.688 176.629,6.437 C176.111,6.184 175.511,6.058 174.829,6.058 C174.254,6.058 173.721,6.167 173.221,6.385 C172.723,6.604 172.286,6.921 171.912,7.336 C171.536,7.753 171.232,8.254 171.001,8.841 C170.77,9.428 170.633,10.089 170.592,10.826 L178.982,10.826 C178.982,10.185 178.895,9.574 178.717,8.994 L178.717,8.994 Z" id="Fill-18" fill="#404041" sketch:type="MSShapeGroup"></path>
        </g>
    </g>
</svg>