<?xml version="1.0" encoding="UTF-8" standalone="no"?>
<svg width="65px" height="27px" viewBox="0 0 65 27" version="1.1" xmlns="http://www.w3.org/2000/svg" xmlns:xlink="http://www.w3.org/1999/xlink" xmlns:sketch="http://www.bohemiancoding.com/sketch/ns">
    <!-- Generator: Sketch 3.2.2 (9983) - http://www.bohemiancoding.com/sketch -->
    <title>Imported Layers</title>
    <desc>Created with Sketch.</desc>
    <defs></defs>
    <g id="Page-1" stroke="none" stroke-width="1" fill="none" fill-rule="evenodd" sketch:type="MSPage">
        <g id="Imported-Layers" sketch:type="MSLayerGroup">
            <path d="M14.655,0.874 L21.983,13.566 L7.327,13.566 L14.655,0.874" id="Fill-1" fill="#55A07A" sketch:type="MSShapeGroup"></path>
            <path d="M7.327,13.566 L0,0.874 L14.655,0.874 L7.327,13.566" id="Fill-2" fill="#1A877B" sketch:type="MSShapeGroup"></path>
            <path d="M14.655,26.258 L21.983,13.566 L7.327,13.566 L14.655,26.258" id="Fill-3" fill="#88BE8F" sketch:type="MSShapeGroup"></path>
            <path d="M7.327,13.566 L0,26.258 L14.655,26.258 L7.327,13.566" id="Fill-4" fill="#DEE49D" sketch:type="MSShapeGroup"></path>
            <path d="M31.737,23.906 L31.737,3.248 L39.937,3.248 C43.891,3.248 46.356,4.648 47.338,7.447 C47.625,8.268 47.768,9.187 47.768,10.205 L47.768,17.019 C47.768,19.277 47.117,20.989 45.817,22.156 C44.518,23.323 42.567,23.906 39.966,23.906 L31.737,23.906 L31.737,23.906 Z M34.623,21.763 L39.68,21.763 C41.757,21.763 43.146,21.377 43.846,20.606 C44.546,19.834 44.895,18.734 44.895,17.306 L44.895,10.034 C44.895,7.929 44.191,6.562 42.781,5.934 C41.981,5.571 40.947,5.397 39.68,5.405 L34.623,5.405 L34.623,21.763 L34.623,21.763 Z" id="Fill-5" fill="#363734" sketch:type="MSShapeGroup"></path>
            <path d="M61.045,8.563 C61.045,6.553 59.998,5.548 57.906,5.548 C56.817,5.548 56.063,5.649 55.638,5.852 C55.213,6.055 54.909,6.3 54.725,6.584 C54.338,7.193 54.144,8.143 54.144,9.434 L51.489,9.434 C51.489,7.747 51.774,6.458 52.348,5.568 C52.918,4.679 53.663,4.08 54.579,3.771 C55.497,3.462 56.575,3.307 57.809,3.307 C59.606,3.307 61.029,3.738 62.076,4.6 C63.121,5.463 63.645,6.77 63.645,8.52 C63.645,9.867 63.395,10.902 62.892,11.626 C62.389,12.35 61.57,12.804 60.436,12.988 C61.644,13.236 62.547,13.748 63.147,14.522 C63.746,15.298 64.047,16.56 64.047,18.313 C64.047,20.065 63.513,21.435 62.441,22.428 C61.373,23.418 59.848,23.913 57.864,23.913 C56.361,23.913 55.171,23.715 54.289,23.318 C53.409,22.922 52.738,22.276 52.277,21.382 C51.816,20.487 51.508,19.244 51.351,17.648 L54.006,17.648 C54.117,19.289 54.471,20.377 55.07,20.912 C55.402,21.207 55.795,21.408 56.246,21.514 C56.697,21.619 57.288,21.674 58.017,21.674 C59.188,21.674 60.045,21.372 60.589,20.774 C61.133,20.174 61.404,19.175 61.404,17.773 C61.404,16.371 61.148,15.442 60.638,14.986 C60.126,14.529 59.498,14.26 58.757,14.178 C58.015,14.095 57.294,14.053 56.593,14.053 L56.593,11.992 C58.068,11.992 59.062,11.873 59.58,11.633 C60.096,11.393 60.47,11.101 60.7,10.755 C60.93,10.408 61.045,9.678 61.045,8.563" id="Fill-6" fill="#363734" sketch:type="MSShapeGroup"></path>
        </g>
    </g>
</svg>