<?xml version="1.0" encoding="UTF-8" standalone="no"?>
<svg width="166px" height="26px" viewBox="0 0 166 26" version="1.1" xmlns="http://www.w3.org/2000/svg" xmlns:xlink="http://www.w3.org/1999/xlink" xmlns:sketch="http://www.bohemiancoding.com/sketch/ns">
    <!-- Generator: Sketch 3.2.2 (9983) - http://www.bohemiancoding.com/sketch -->
    <title>Imported Layers</title>
    <desc>Created with Sketch.</desc>
    <defs></defs>
    <g id="Page-1" stroke="none" stroke-width="1" fill="none" fill-rule="evenodd" sketch:type="MSPage">
        <g id="Imported-Layers" sketch:type="MSLayerGroup">
            <path d="M81.079,23.299 C80.077,23.299 79.037,23.175 77.958,22.927 C76.877,22.679 76.09,22.424 75.593,22.162 L76.312,20.139 C76.756,20.348 77.439,20.566 78.362,20.798 C79.285,21.029 80.165,21.144 81,21.144 C82.228,21.144 83.124,20.83 83.69,20.203 C84.256,19.576 84.54,18.641 84.54,17.396 L84.54,6.347 L77.317,6.347 L77.317,4.192 L87.165,4.192 L87.165,17.448 C87.165,19.303 86.666,20.741 85.669,21.765 C84.672,22.787 83.142,23.299 81.079,23.299" id="Fill-1" fill="#3C3C3B" sketch:type="MSShapeGroup"></path>
            <path d="M96.81,23.364 C94.45,23.364 92.952,22.528 92.317,20.856 C92.134,20.377 92.043,19.855 92.043,19.289 L92.043,9.233 L94.498,9.233 L94.498,19.303 C94.498,19.981 94.748,20.515 95.249,20.902 C95.75,21.29 96.496,21.483 97.489,21.483 C98.481,21.483 99.289,21.237 99.911,20.746 C100.534,20.254 100.845,19.685 100.845,19.041 L100.845,9.233 L103.3,9.233 L103.3,23.077 L101.106,23.077 L100.845,21.34 C100.079,22.689 98.733,23.364 96.81,23.364" id="Fill-2" fill="#3C3C3B" sketch:type="MSShapeGroup"></path>
            <path d="M110.347,9.887 C111.426,9.276 112.727,8.972 114.252,8.972 C115.775,8.972 116.989,9.377 117.895,10.186 C118.8,10.996 119.253,12.09 119.253,13.465 L119.253,18.479 C119.253,19.916 118.757,21.09 117.765,21.999 C116.772,22.909 115.396,23.364 113.638,23.364 C112.523,23.364 111.317,22.959 110.02,22.149 L109.706,23.077 L107.891,23.077 L107.891,3.408 L110.347,3.408 L110.347,9.887 L110.347,9.887 Z M116.798,13.282 C116.798,11.662 115.775,10.852 113.729,10.852 C112.727,10.852 111.6,11.14 110.347,11.715 L110.347,20.621 C111.304,21.161 112.281,21.432 113.278,21.432 C114.275,21.432 115.111,21.189 115.786,20.706 C116.46,20.223 116.798,19.567 116.798,18.741 L116.798,13.282 L116.798,13.282 Z" id="Fill-3" fill="#3C3C3B" sketch:type="MSShapeGroup"></path>
            <path d="M123.609,4.192 L126.064,4.192 L126.064,6.738 L123.609,6.738 L123.609,4.192 Z M123.609,9.233 L126.064,9.233 L126.064,23.077 L123.609,23.077 L123.609,9.233 Z" id="Fill-4" fill="#3C3C3B" sketch:type="MSShapeGroup"></path>
            <path d="M135.357,23.182 C134.547,23.182 133.885,23.12 133.372,22.998 C132.858,22.877 132.405,22.646 132.014,22.307 C131.282,21.671 130.916,20.369 130.916,18.401 L130.916,3.422 L133.372,3.422 L133.372,18.428 C133.372,19.542 133.537,20.268 133.868,20.608 C134.199,20.948 134.882,21.118 135.919,21.118 L136.349,21.118 L136.062,23.182 L135.357,23.182" id="Fill-5" fill="#3C3C3B" sketch:type="MSShapeGroup"></path>
            <path d="M144.949,23.364 C142.92,23.364 141.454,22.942 140.548,22.098 C139.643,21.253 139.19,19.951 139.19,18.192 L139.19,13.373 C139.19,12.006 139.655,10.932 140.587,10.147 C141.519,9.364 142.927,8.972 144.812,8.972 C146.697,8.972 148.099,9.336 149.018,10.062 C149.935,10.79 150.395,11.828 150.395,13.178 L150.395,16.469 L141.645,16.469 L141.645,18.414 C141.645,19.563 141.876,20.362 142.337,20.81 C142.798,21.259 143.63,21.483 144.832,21.483 C146.033,21.483 146.712,21.457 146.869,21.405 C147.026,21.352 147.187,21.292 147.353,21.223 C147.518,21.152 147.633,21.069 147.698,20.975 C147.764,20.879 147.851,20.732 147.959,20.537 C148.068,20.341 148.149,19.96 148.201,19.394 L150.369,19.394 C150.282,20.221 150.136,20.887 149.932,21.393 C149.727,21.897 149.405,22.3 148.965,22.6 C148.525,22.9 147.999,23.103 147.385,23.207 C146.771,23.311 145.959,23.364 144.949,23.364 L144.949,23.364 Z M141.645,14.81 L148.019,14.81 L148.019,12.916 C148.019,12.133 147.75,11.593 147.215,11.297 C146.68,11 145.894,10.852 144.858,10.852 C143.822,10.852 143.027,11.031 142.475,11.389 C141.921,11.745 141.645,12.333 141.645,13.151 L141.645,14.81 L141.645,14.81 Z" id="Fill-6" fill="#3C3C3B" sketch:type="MSShapeGroup"></path>
            <path d="M159.805,23.364 C157.776,23.364 156.31,22.942 155.404,22.098 C154.498,21.253 154.046,19.951 154.046,18.192 L154.046,13.373 C154.046,12.006 154.512,10.932 155.443,10.147 C156.375,9.364 157.783,8.972 159.668,8.972 C161.553,8.972 162.955,9.336 163.873,10.062 C164.792,10.79 165.251,11.828 165.251,13.178 L165.251,16.469 L156.501,16.469 L156.501,18.414 C156.501,19.563 156.731,20.362 157.193,20.81 C157.654,21.259 158.486,21.483 159.687,21.483 C160.889,21.483 161.568,21.457 161.725,21.405 C161.882,21.352 162.042,21.292 162.208,21.223 C162.373,21.152 162.489,21.069 162.554,20.975 C162.62,20.879 162.706,20.732 162.815,20.537 C162.924,20.341 163.005,19.96 163.057,19.394 L165.225,19.394 C165.138,20.221 164.992,20.887 164.788,21.393 C164.583,21.897 164.261,22.3 163.821,22.6 C163.381,22.9 162.854,23.103 162.241,23.207 C161.627,23.311 160.815,23.364 159.805,23.364 L159.805,23.364 Z M156.501,14.81 L162.875,14.81 L162.875,12.916 C162.875,12.133 162.606,11.593 162.071,11.297 C161.536,11 160.749,10.852 159.714,10.852 C158.678,10.852 157.883,11.031 157.33,11.389 C156.777,11.745 156.501,12.333 156.501,13.151 L156.501,14.81 L156.501,14.81 Z" id="Fill-7" fill="#3C3C3B" sketch:type="MSShapeGroup"></path>
            <path d="M15.404,0.044 L22.732,12.736 L8.076,12.736 L15.404,0.044" id="Fill-8" fill="#58A884" sketch:type="MSShapeGroup"></path>
            <path d="M8.076,12.736 L0.749,0.044 L15.404,0.044 L8.076,12.736" id="Fill-9" fill="#008F86" sketch:type="MSShapeGroup"></path>
            <path d="M15.404,25.428 L22.732,12.736 L8.076,12.736 L15.404,25.428" id="Fill-10" fill="#8EC498" sketch:type="MSShapeGroup"></path>
            <path d="M8.076,12.736 L0.749,25.428 L15.404,25.428 L8.076,12.736" id="Fill-11" fill="#E0E6A1" sketch:type="MSShapeGroup"></path>
            <path d="M32.486,23.076 L32.486,2.418 L40.686,2.418 C44.639,2.418 47.106,3.818 48.086,6.617 C48.373,7.437 48.516,8.356 48.516,9.376 L48.516,16.189 C48.516,18.447 47.867,20.159 46.566,21.326 C45.267,22.493 43.316,23.076 40.714,23.076 L32.486,23.076 L32.486,23.076 Z M35.372,20.933 L40.429,20.933 C42.506,20.933 43.894,20.547 44.595,19.776 C45.294,19.004 45.644,17.904 45.644,16.476 L45.644,9.204 C45.644,7.1 44.94,5.732 43.53,5.103 C42.73,4.741 41.696,4.566 40.429,4.575 L35.372,4.575 L35.372,20.933 L35.372,20.933 Z" id="Fill-12" fill="#3C3C3B" sketch:type="MSShapeGroup"></path>
            <path d="M61.794,7.732 C61.794,5.723 60.747,4.718 58.655,4.718 C57.566,4.718 56.811,4.819 56.386,5.022 C55.962,5.225 55.659,5.47 55.474,5.755 C55.087,6.363 54.893,7.312 54.893,8.604 L52.238,8.604 C52.238,6.917 52.523,5.628 53.096,4.738 C53.666,3.849 54.412,3.25 55.328,2.94 C56.246,2.632 57.324,2.476 58.558,2.476 C60.356,2.476 61.778,2.908 62.825,3.77 C63.87,4.633 64.394,5.939 64.394,7.691 C64.394,9.037 64.144,10.072 63.641,10.796 C63.138,11.519 62.319,11.974 61.185,12.158 C62.394,12.406 63.296,12.918 63.896,13.692 C64.496,14.468 64.795,15.73 64.795,17.482 C64.795,19.234 64.262,20.605 63.19,21.598 C62.122,22.588 60.596,23.083 58.613,23.083 C57.11,23.083 55.92,22.885 55.038,22.489 C54.158,22.093 53.487,21.446 53.026,20.552 C52.565,19.657 52.256,18.414 52.1,16.818 L54.754,16.818 C54.866,18.459 55.22,19.548 55.819,20.082 C56.151,20.377 56.544,20.578 56.996,20.684 C57.447,20.789 58.037,20.844 58.766,20.844 C59.937,20.844 60.794,20.543 61.338,19.944 C61.882,19.344 62.153,18.345 62.153,16.942 C62.153,15.541 61.898,14.612 61.387,14.156 C60.875,13.699 60.248,13.43 59.506,13.348 C58.763,13.266 58.043,13.223 57.341,13.223 L57.341,11.162 C58.817,11.162 59.812,11.043 60.329,10.803 C60.845,10.562 61.219,10.271 61.449,9.926 C61.679,9.578 61.794,8.848 61.794,7.732" id="Fill-13" fill="#3C3C3B" sketch:type="MSShapeGroup"></path>
        </g>
    </g>
</svg>